<svg width="335" height="35" viewBox="0 0 335 35" fill="none" xmlns="http://www.w3.org/2000/svg">
<path d="M0.0226991 0.458623H26.0093L13.0392 34.3481L0.0226991 0.458623ZM8.01858 5.85119L13.0392 19.7045L18.0134 5.85119H8.01858ZM51.2365 5.89768H34.9658V14.033H48.4937V19.4256H34.9658V27.5609H51.2365V33H29.5268V0.458623H51.2365V5.89768ZM73.1736 0.458623V5.4328H66.3399V33H60.9473V5.4328H54.1136V0.458623H73.1736Z" fill="#EEECDE"/>
<path d="M102.738 33.4649C97.1133 33.3254 92.6505 30.0713 92.5575 23.9814H97.9965C98.0895 26.6777 100.321 28.0258 102.738 28.0258C105.249 28.0258 107.48 26.3987 107.48 23.8419C107.48 21.0992 104.923 19.4256 102.738 19.3326C102.459 19.3326 100.228 19.3326 97.8571 18.2634C94.4635 16.6828 92.5575 13.8006 92.5575 9.94211C92.5575 3.75925 97.4852 -0.00625353 102.738 -0.00625353C108.363 -0.00625353 112.687 3.80574 112.78 9.33777H107.387C107.294 6.64148 105.202 5.4328 102.738 5.4328C100.181 5.4328 97.9965 6.92041 97.9965 9.94211C97.9965 12.6384 100.321 14.0795 102.738 14.0795C102.971 14.0795 105.249 14.0795 107.573 15.1487C111.013 16.7293 112.873 19.9834 112.873 23.8419C112.873 30.0713 107.991 33.4649 102.738 33.4649ZM133.744 0.0402336C155.082 0.0402336 155.128 33.4184 133.744 33.4184C112.267 33.4184 112.313 0.0402336 133.744 0.0402336ZM133.744 28.1653C147.83 28.1653 147.83 5.33983 133.744 5.33983C119.705 5.33983 119.658 28.1653 133.744 28.1653ZM161.445 27.5609H173.485V33H156.006V0.458623H161.445V27.5609ZM190.476 33.4649C183.782 33.4649 178.296 29.281 178.296 22.5868V0.458623H183.735V22.5868C184.014 26.3523 187.036 28.0258 190.476 28.0258C193.87 28.0258 197.263 26.2128 197.263 22.5868V0.458623H202.702V22.5868C202.702 29.5134 197.403 33.4649 190.476 33.4649ZM226.347 0.458623V5.4328H219.513V33H214.121V5.4328H207.287V0.458623H226.347ZM231.007 33V0.458623H236.446V33H231.007ZM258.68 0.0402336C280.018 0.0402336 280.064 33.4184 258.68 33.4184C237.202 33.4184 237.249 0.0402336 258.68 0.0402336ZM258.68 28.1653C272.765 28.1653 272.765 5.33983 258.68 5.33983C244.64 5.33983 244.594 28.1653 258.68 28.1653ZM308.044 0.458623V33H302.558L286.381 9.84913V33H280.942V0.458623H286.427L302.651 23.6095V0.458623H308.044ZM324.463 33.4649C318.838 33.3254 314.375 30.0713 314.282 23.9814H319.721C319.814 26.6777 322.045 28.0258 324.463 28.0258C326.973 28.0258 329.204 26.4452 329.204 23.8884C329.204 21.1456 326.648 19.4256 324.463 19.3326C324.184 19.3326 321.952 19.3326 319.581 18.2634C316.188 16.6828 314.282 13.8006 314.282 9.94211C314.282 3.75925 319.21 -0.00625353 324.463 -0.00625353C330.088 -0.00625353 334.411 3.80574 334.504 9.33777H329.111C329.018 6.64148 326.926 5.4328 324.463 5.4328C321.906 5.4328 319.721 6.92041 319.721 9.94211C319.721 12.6384 322.045 14.0795 324.463 14.0795C324.695 14.0795 326.973 14.0795 329.297 15.1487C332.737 16.7293 334.597 20.0299 334.597 23.8884C334.597 30.1178 329.716 33.4649 324.463 33.4649Z" fill="#5E30F2"/>
</svg>
